<svg xmlns="http://www.w3.org/2000/svg" width="80.87" height="80.87" viewBox="0 0 80.87 80.87"><defs><style>.a{fill:#dedede;}</style></defs><g transform="translate(-3763.012 4369.301)"><g transform="translate(3763.012 -4369.301)"><path class="a" d="M3784.579-4297.89l-20.911,20.91a2.242,2.242,0,0,0,0,3.169,2.241,2.241,0,0,0,3.169,0l21.139-21.138C3786.819-4295.9,3785.689-4296.885,3784.579-4297.89Z" transform="translate(-3763.012 4354.024)"/><path class="a" d="M3860.606-4368.644a2.239,2.239,0,0,0-3.169,0l-13.179,13.179a18.84,18.84,0,0,1,3.793,2.429c.021.018.04.038.06.054l12.494-12.493A2.24,2.24,0,0,0,3860.606-4368.644Z" transform="translate(-3780.392 4369.301)"/></g><g transform="translate(3770.146 -4357.438)"><path class="a" d="M3785.84-4310.775c.306.284.62.559.93.838l42.3-42.3a19.322,19.322,0,0,0-22.647,4.2,2.183,2.183,0,0,0-.249.282c-.358.571-.643.459-1.037,0a18.373,18.373,0,0,0-8.324-5.492,19.165,19.165,0,0,0-3.509-.795c-10.241-1.339-19.677,5.53-21.074,15.334a23.989,23.989,0,0,0,2.726,13.964A49.521,49.521,0,0,0,3785.84-4310.775Z" transform="translate(-3772.087 4354.21)"/><path class="a" d="M3837.843-4348.54l-42.756,42.755a96.281,96.281,0,0,0,13.559,9.327c.374.214.768.4,1.151.606h1.555a89.111,89.111,0,0,0,12.486-8.157,69.36,69.36,0,0,0,13.7-13.455,32.737,32.737,0,0,0,6.22-13.212c.135-.679.233-1.363.352-2.041v-4.6a19.493,19.493,0,0,0-2.592-7.023A18.2,18.2,0,0,0,3837.843-4348.54Z" transform="translate(-3777.008 4352.997)"/></g></g></svg>