<svg xmlns="http://www.w3.org/2000/svg" width="12.954" height="11.517" viewBox="0 0 12.954 11.517"><defs><style>.a{fill:#7a35ff;}</style></defs><g transform="translate(0)"><path class="a" d="M-706.347-11857.226h-.3c-.074-.041-.15-.079-.222-.122a18.577,18.577,0,0,1-3.451-2.641,9.938,9.938,0,0,1-2.1-2.814,5.015,5.015,0,0,1-.526-2.813,3.611,3.611,0,0,1,4.743-2.93,3.538,3.538,0,0,1,1.606,1.106c.076.093.131.115.2,0a.486.486,0,0,1,.048-.057,3.616,3.616,0,0,1,5.822.5,4.046,4.046,0,0,1,.5,1.415v.928c-.023.137-.042.274-.068.411a6.73,6.73,0,0,1-1.2,2.662,13.686,13.686,0,0,1-2.643,2.711A17.112,17.112,0,0,1-706.347-11857.226Z" transform="translate(712.981 11868.742)"/></g></svg>