<svg xmlns="http://www.w3.org/2000/svg" width="12.883" height="11.441" viewBox="0 0 12.883 11.441"><defs><style>.a{fill:#7a35ff;}</style></defs><path class="a" d="M-582.93-11864.735c-.045.253-.077.51-.136.76a7.113,7.113,0,0,1-1.428,2.785,16.189,16.189,0,0,1-3.779,3.364c-.268.18-.546.344-.82.514a.5.5,0,0,1-.561,0,17.349,17.349,0,0,1-4.352-3.58,7.514,7.514,0,0,1-1.635-2.941,3.822,3.822,0,0,1,.342-3.092,3.508,3.508,0,0,1,2.64-1.714.705.705,0,0,0,.1-.025h.656a.654.654,0,0,0,.084.024,3.5,3.5,0,0,1,1.874.8c.209.174.4.363.606.545-.021.026-.01.025,0,.019s.04-.044.058-.066a3.505,3.505,0,0,1,1.77-1.177c.222-.063.453-.1.68-.147h.656a.59.59,0,0,0,.1.025,3.564,3.564,0,0,1,3,2.543c.064.223.1.453.149.679Zm-.951-.329c-.01-.112-.017-.227-.031-.34a2.617,2.617,0,0,0-4.15-1.794,2.62,2.62,0,0,0-.858,1.085.465.465,0,0,1-.45.308.469.469,0,0,1-.451-.307c-.012-.027-.023-.055-.036-.081a2.625,2.625,0,0,0-2.5-1.516,2.626,2.626,0,0,0-2.336,1.711,3.2,3.2,0,0,0,.03,2.1,7.119,7.119,0,0,0,1.617,2.646,16.766,16.766,0,0,0,3.573,2.926.168.168,0,0,0,.211-.007,18.285,18.285,0,0,0,2.548-1.908,10.735,10.735,0,0,0,2.034-2.362A4.941,4.941,0,0,0-583.881-11865.064Z" transform="translate(595.813 11868.668)"/></svg>